<svg xmlns="http://www.w3.org/2000/svg" viewBox="0 0 1200 350" width="1200" height="350" role="img" aria-label="warikappはレシートを品目に分け、利用者が負担を仕分けて、世帯の支出と精算記録を保存する。">
  <rect width="1200" height="350" fill="#FFFFFF"/>
  <g font-family="Hiragino Kaku Gothic ProN, sans-serif" fill="#212529">
    <text x="38" y="44" font-size="25" font-weight="700">warikapp</text>
    <text x="1170" y="44" text-anchor="end" font-size="18" fill="#64707C">品目から、ふたりの精算記録へ</text>
    <path d="M38 64H1162" stroke="#DEE2E6"/>
    <path d="M291 190H323M315 182L324 190L315 198M579 190H611M603 182L612 190L603 198M867 190H899M891 182L900 190L891 198" fill="none" stroke="#2563EB" stroke-width="3" stroke-linejoin="round"/>
    <rect x="36" y="96" width="252" height="204" rx="16" fill="#F6F8FA" stroke="#DEE2E6"/>
    <path d="M133 119H185V194L172 187L159 194L146 187L133 194Z" fill="#FFFFFF" stroke="#2563EB" stroke-width="3" stroke-linejoin="round"/>
    <path d="M145 137H172M145 150H172M145 163H163" stroke="#2563EB" stroke-width="3" stroke-linecap="round"/>
    <text x="162" y="240" text-anchor="middle" font-size="23" font-weight="700">レシートの読み取り</text>
    <text x="162" y="272" text-anchor="middle" font-size="18" fill="#64707C">AIが品目を抽出</text>
    <rect x="324" y="96" width="252" height="204" rx="16" fill="#FFFFFF" stroke="#D97706" stroke-width="2"/>
    <rect x="408" y="121" width="84" height="74" rx="8" fill="#F6F8FA" stroke="#D97706" stroke-width="3"/>
    <path d="M421 140H478M421 157H478M421 175H478" stroke="#D97706" stroke-width="2"/>
    <circle cx="438" cy="140" r="5" fill="#FFFFFF" stroke="#D97706" stroke-width="3"/>
    <circle cx="462" cy="157" r="5" fill="#FFFFFF" stroke="#D97706" stroke-width="3"/>
    <circle cx="451" cy="175" r="5" fill="#FFFFFF" stroke="#D97706" stroke-width="3"/>
    <text x="450" y="240" text-anchor="middle" font-size="23" font-weight="700">画面で確認・仕分け</text>
    <text x="450" y="272" text-anchor="middle" font-size="18" fill="#64707C">自分・相手・折半</text>
    <rect x="612" y="96" width="252" height="204" rx="16" fill="#F6F8FA" stroke="#2563EB" stroke-width="2"/>
    <path d="M700 135V184C700 205 776 205 776 184V135" fill="#FFFFFF" stroke="#2563EB" stroke-width="3"/>
    <ellipse cx="738" cy="135" rx="38" ry="13" fill="#FFFFFF" stroke="#2563EB" stroke-width="3"/>
    <path d="M700 158C700 178 776 178 776 158" fill="none" stroke="#2563EB" stroke-width="3"/>
    <text x="738" y="240" text-anchor="middle" font-size="23" font-weight="700">世帯の支出に保存</text>
    <text x="738" y="272" text-anchor="middle" font-size="18" fill="#64707C">確定した品目を集計</text>
    <rect x="900" y="96" width="264" height="204" rx="16" fill="#FFFFFF" stroke="#16A34A" stroke-width="2"/>
    <circle cx="1000" cy="137" r="15" fill="#F6F8FA" stroke="#16A34A" stroke-width="3"/>
    <circle cx="1063" cy="137" r="15" fill="#F6F8FA" stroke="#16A34A" stroke-width="3"/>
    <path d="M976 187V178C976 153 1024 153 1024 178M1039 178C1039 153 1087 153 1087 178V187" fill="none" stroke="#16A34A" stroke-width="3"/>
    <path d="M1021 188H1046L1037 180M1046 188L1037 196" fill="none" stroke="#16A34A" stroke-width="3" stroke-linejoin="round"/>
    <text x="1032" y="240" text-anchor="middle" font-size="23" font-weight="700">差額を精算記録に</text>
    <text x="1032" y="272" text-anchor="middle" font-size="18" fill="#64707C">誰から誰へを残す</text>
  </g>
</svg>
